<svg xmlns="http://www.w3.org/2000/svg" width="148" height="31" viewBox="0 0 148 31" fill="none"><path fill-rule="evenodd" clip-rule="evenodd" d="M94.5226 30.1191H94.5658H94.575C94.8181 30.1191 95.0617 30.1129 95.305 30.1066C95.843 30.0928 96.3797 30.0791 96.9078 30.1329C98.088 30.257 98.6482 29.7651 99.0523 28.6523C100.332 25.1143 101.665 21.5967 102.999 18.0786L103.003 18.0693L103.006 18.061L103.008 18.0543L103.01 18.0493C103.458 16.8679 103.906 15.6865 104.352 14.5042C104.844 13.1989 105.336 11.8944 105.829 10.5901L105.831 10.5857C106.929 7.67855 108.027 4.7724 109.114 1.85969C109.619 0.503276 109.288 0.0526704 107.842 0.0388763C107.492 0.0339659 107.141 0.0412916 106.79 0.0486156C106.155 0.0618657 105.52 0.0751105 104.893 0.0158862C103.773 -0.0898682 103.204 0.328551 102.795 1.3861C100.91 6.28901 98.9761 11.1753 97.0428 16.0592L97.0425 16.0601L97.0419 16.0615L97.0414 16.0628L97.018 16.122C96.6842 16.9652 96.3504 17.8084 96.0169 18.6517C95.969 18.7724 95.9269 18.9004 95.8845 19.0293C95.6832 19.6415 95.4751 20.2746 94.6026 20.2518C93.8643 20.2306 93.6616 19.6948 93.4609 19.1642L93.4608 19.164C93.3994 19.0016 93.3381 18.8396 93.2617 18.693C93.2386 18.6469 93.221 18.5989 93.2031 18.5503C93.1925 18.5214 93.1818 18.4923 93.1698 18.4631C92.6956 17.2551 92.2207 16.0475 91.7459 14.84L91.7384 14.8209L91.7315 14.8035L91.7313 14.8028L91.731 14.8022L91.7309 14.8018C89.9624 10.3045 88.1945 5.80875 86.4608 1.29873C86.0888 0.337747 85.5745 -0.053084 84.5505 0.0158862C83.8563 0.0633363 83.1605 0.0531782 82.4641 0.0430103C82.0132 0.0364282 81.5621 0.0298421 81.111 0.0388763C79.8436 0.0618664 79.5129 0.558452 79.9675 1.76773C80.6976 3.70543 81.4268 5.64314 82.156 7.58072L82.1575 7.58452C84.5286 13.8848 86.8993 20.1838 89.2941 26.4775C90.6803 30.1192 90.7174 30.1192 94.5226 30.1191ZM142.933 0.0427966C142.415 0.0408073 141.896 0.0388172 141.377 0.0388172H141.368C140.864 0.0388172 140.361 0.0403196 139.857 0.0418215C138.599 0.0455745 137.342 0.0493245 136.083 0.0296212C135.444 0.0204252 135.013 0.231934 134.65 0.769902C131.693 5.15181 128.717 9.52453 125.727 13.8835C125.264 14.5594 125.282 15.1249 125.746 15.787C128.988 20.4172 132.221 25.0612 135.444 29.7098C135.803 30.2294 136.23 30.4915 136.868 30.4915C140.064 30.4777 143.259 30.4823 146.455 30.4869H146.456C147.54 30.4869 148.018 29.9581 147.995 28.8868C147.981 28.2458 147.985 27.6049 147.989 26.9639V26.9622C147.991 26.4956 147.994 26.029 147.99 25.5624C147.981 24.1324 147.756 23.8933 146.364 23.8887C144.316 23.8749 142.268 23.8657 140.22 23.8933C139.449 23.9071 138.898 23.6404 138.461 22.9967L138.46 22.9953C136.872 20.6554 135.283 18.3155 133.649 16.0077C133.075 15.1939 133.02 14.5042 133.598 13.6627C135.017 11.6028 136.4 9.51993 137.75 7.41404C138.227 6.66916 138.829 6.41167 139.692 6.42547C140.951 6.44564 142.211 6.4423 143.469 6.43897C144.505 6.43622 145.541 6.43348 146.576 6.44386C147.549 6.45305 148.018 6.04383 147.999 5.05066C147.981 3.81839 147.985 2.59072 147.999 1.35845C148.013 0.438845 147.604 0.0158271 146.663 0.0296212C145.418 0.0523378 144.176 0.047569 142.933 0.0427966ZM26.4702 15.001V1.71734C26.4702 0.190795 26.6263 0.0436584 28.1693 0.0390604H30.626C32.0588 0.0390604 32.7751 0.777809 32.7751 2.25531V21.8153C32.7751 23.2958 33.5084 24.0361 34.9748 24.0361C35.8167 24.0361 36.6585 24.0379 37.5004 24.0397H37.5008C39.6896 24.0443 41.8784 24.0489 44.0671 24.0223C44.9809 24.0131 45.5917 24.3028 46.0739 25.1075C46.5601 25.9153 47.1166 26.6771 47.6728 27.4387L47.6729 27.4388L47.6735 27.4396C47.842 27.6703 48.0105 27.901 48.177 28.1329C48.4755 28.5514 48.7051 28.9744 48.425 29.4894C48.1495 29.9951 47.6811 30.0595 47.1668 30.0595L44.7557 30.0577C39.1304 30.0531 33.5052 30.0486 27.88 30.0687C26.6814 30.0687 26.4564 29.4158 26.461 28.4134C26.4748 25.0615 26.4731 21.7095 26.4713 18.3576C26.4708 17.2402 26.4702 16.1229 26.4702 15.0056V15.001ZM7.39837 6.24647C8.17022 6.24872 8.9418 6.25098 9.71301 6.25098L9.70841 6.25557H17.8181C18.3599 6.25557 18.8742 6.23718 19.2232 5.70381C19.5818 5.15395 19.9512 4.61108 20.3206 4.06817C20.8502 3.28998 21.3798 2.51173 21.8775 1.71273C22.4607 0.779334 22.0887 0.0528474 21.0142 0.0528474C15.8854 0.0349667 10.7595 0.0365556 5.63196 0.038145C4.1668 0.0385992 2.70151 0.0390534 1.23599 0.0390534C0.345124 0.0390534 0.000716265 0.494257 0.0144926 1.34949C0.0168668 1.49213 0.0194712 1.63492 0.0220777 1.77782L0.0220777 1.77783C0.0396364 2.74051 0.0572893 3.70837 0.00530836 4.66926C-0.058981 5.85095 0.459926 6.28316 1.60336 6.26477C3.53559 6.23521 5.46781 6.24084 7.39837 6.24647ZM64.0293 0.0388345H73.489C73.5504 0.0388345 73.6123 0.0375938 73.6742 0.0363518C74.1458 0.0269008 74.6212 0.0173704 74.885 0.553812C75.1654 1.11977 74.8624 1.56535 74.5637 2.0047L74.5498 2.02518C74.3072 2.38744 74.0632 2.74836 73.8193 3.1092C73.283 3.90248 72.747 4.69536 72.2262 5.50128C71.8772 6.03925 71.4318 6.25995 70.7935 6.25995C65.2659 6.24616 59.7383 6.25075 54.2061 6.25535L54.2022 6.25535C53.2884 6.25535 52.8384 5.85992 52.8567 4.92193C52.8797 3.77242 52.8935 2.62292 52.8521 1.47801C52.8108 0.415872 53.2746 0.0158444 54.317 0.0296384C56.691 0.0532401 59.0625 0.0496454 61.4351 0.046049C62.2981 0.0447408 63.1613 0.0434325 64.0247 0.0434325L64.0293 0.0388345ZM7.93184 30.0377C8.96914 30.0372 10.0066 30.0367 11.0446 30.0367V30.0413H20.3803C20.4509 30.0413 20.522 30.0427 20.5932 30.0441C21.1385 30.0549 21.687 30.0658 21.9876 29.4435C22.22 28.9608 22.0018 28.604 21.7782 28.2383L21.7782 28.2383C21.7057 28.1199 21.6327 28.0005 21.5743 27.8756C20.0956 24.6984 17.7215 23.6546 14.2086 23.9489C10.0803 24.0271 5.86012 24.0363 1.6859 24.0271C0.620535 24.0225 0.0189699 24.3535 0.00978567 25.5812C0.000601465 26.487 0.00978567 27.4664 0.0189699 28.409C0.0327462 29.7654 0.308272 30.0367 1.70886 30.0367C3.78268 30.0397 5.85445 30.0387 7.9269 30.0377H7.92741H7.92792H7.92843H7.93184ZM63.8322 30.0366H54.7445C53.05 30.0366 52.8709 29.8481 52.8663 28.1054C52.8663 27.834 52.869 27.5621 52.8718 27.2902V27.2901V27.2901V27.29C52.8777 26.7006 52.8837 26.1111 52.8617 25.526C52.8158 24.3719 53.4541 24.027 54.4735 24.027C56.2218 24.0331 57.9679 24.0311 59.7135 24.029H59.714H59.7145H59.715C60.587 24.028 61.4588 24.027 62.3306 24.027C63.1014 24.027 63.8727 24.0285 64.644 24.03H64.6445H64.6449H64.6454H64.6458C66.5759 24.0338 68.507 24.0375 70.4357 24.0178C71.2944 24.0086 71.9097 24.2753 72.3873 25.011C72.8519 25.7247 73.3517 26.4141 73.8517 27.1037L73.8521 27.1042L73.8523 27.1045C74.0737 27.4098 74.2951 27.7152 74.5134 28.0227C74.8303 28.4687 75.115 28.9147 74.8027 29.4894C74.5021 30.0429 73.9927 30.0421 73.4756 30.0413L73.4159 30.0412H63.8368L63.8322 30.0366ZM5.93948 18.1559C6.54148 18.1579 7.14365 18.1599 7.74621 18.1599L7.74162 18.1553C8.43826 18.1553 9.13489 18.1568 9.83136 18.1584C11.2238 18.1614 12.6155 18.1645 14.0052 18.1553C15.3645 18.1461 15.6354 17.861 15.6446 16.477C15.6538 15.4563 15.6584 14.4309 15.64 13.4055C15.6263 12.6331 15.2267 12.1549 14.4323 12.1549C10.0514 12.1411 5.67517 12.1411 1.29431 12.1549C0.46773 12.1595 0.0131121 12.6055 0.0177042 13.4699C0.019702 13.6929 0.0227862 13.916 0.0258697 14.139C0.0369618 14.9411 0.0480454 15.7427 0.00852002 16.5414C-0.0511773 17.7093 0.46773 18.1875 1.60657 18.1691C3.05208 18.1464 4.49531 18.1511 5.93948 18.1559ZM60.726 12.1408C61.3951 12.1408 62.0636 12.1398 62.7321 12.1388H62.7326C64.0687 12.1367 65.4041 12.1347 66.7416 12.1408C68.1881 12.15 68.4912 12.4489 68.505 13.8467C68.5111 14.5027 68.5091 15.1586 68.507 15.8146C68.506 16.1426 68.505 16.4706 68.505 16.7986C68.5004 17.6998 68.055 18.155 67.1366 18.155H54.2419C53.273 18.155 52.823 17.7044 52.8551 16.7158C52.8873 15.6905 52.8873 14.6651 52.8551 13.6444C52.823 12.6006 53.3281 12.1408 54.3384 12.1408H60.7214H60.726ZM114.699 18.4458C115.199 18.4476 115.699 18.4493 116.199 18.4493C116.702 18.4493 117.204 18.4471 117.707 18.4448C118.963 18.4392 120.219 18.4336 121.476 18.4631C122.178 18.4769 122.518 18.3252 122.491 17.5251C122.436 16.0124 122.449 14.4904 122.486 12.9777C122.504 12.2834 122.252 12.0581 121.563 12.0627C117.963 12.0857 114.363 12.0857 110.762 12.0627C110.046 12.0581 109.849 12.3524 109.862 13.0145C109.894 14.5318 109.899 16.0492 109.862 17.5619C109.844 18.27 110.119 18.4769 110.799 18.4631C112.099 18.4366 113.399 18.4412 114.699 18.4458Z" fill="url(#paint0_linear_798_1747)"></path><defs><linearGradient id="paint0_linear_798_1747" x1="85.352" y1="-6.52284" x2="87.0174" y2="36.7083" gradientUnits="userSpaceOnUse"><stop offset="0.42" stop-color="#F48D2F"></stop><stop offset="1" stop-color="#D84B99"></stop></linearGradient></defs></svg>